<svg width="19" height="20" viewBox="0 0 19 20" fill="none" xmlns="http://www.w3.org/2000/svg">
<path d="M1.5 7H17.5M1.5 7V15.8002C1.5 16.9203 1.5 17.4801 1.71799 17.9079C1.90973 18.2842 2.21547 18.5905 2.5918 18.7822C3.0192 19 3.57899 19 4.69691 19H14.3036C15.4215 19 15.9805 19 16.4079 18.7822C16.7842 18.5905 17.0905 18.2842 17.2822 17.9079C17.5 17.4805 17.5 16.9215 17.5 15.8036V7M1.5 7V6.2002C1.5 5.08009 1.5 4.51962 1.71799 4.0918C1.90973 3.71547 2.21547 3.40973 2.5918 3.21799C3.01962 3 3.58009 3 4.7002 3H5.5M17.5 7V6.19691C17.5 5.07899 17.5 4.5192 17.2822 4.0918C17.0905 3.71547 16.7842 3.40973 16.4079 3.21799C15.9801 3 15.4203 3 14.3002 3H13.5M5.5 3H13.5M5.5 3V1M13.5 3V1M12 13H9.5M9.5 13H7M9.5 13V10.5M9.5 13V15.5" stroke="white" stroke-width="2" stroke-linecap="round" stroke-linejoin="round"/>
</svg>
