<svg width="36" height="36" viewBox="0 0 36 36" fill="none" xmlns="http://www.w3.org/2000/svg">
<circle cx="18" cy="18" r="18" fill="#FF4A4A"/>
<path d="M17.9999 36C8.05901 36 0 27.94 0 18.0002C0 8.06026 8.05901 0 17.9999 0C27.9406 0 36 8.05905 36 18.0002C36 27.9414 27.941 36 17.9999 36ZM11 15.729L12.0135 26.8715C12.0745 27.5487 12.6821 28.1038 13.3622 28.1038H22.6399C23.3185 28.1038 23.9279 27.5492 23.9887 26.8715L25.002 15.729C25.0193 15.5722 25.003 15.4135 24.9541 15.2635C24.9051 15.1135 24.8248 14.9757 24.7183 14.8591C24.6118 14.7425 24.4817 14.6499 24.3365 14.5874C24.1914 14.5249 24.0346 14.494 23.8766 14.4966H12.1256C11.5108 14.4858 11.0033 14.9742 10.9924 15.5879C10.9915 15.6351 10.9937 15.6821 10.9989 15.729H11ZM25.4238 12.6417C25.425 11.6181 24.5941 10.7873 23.5687 10.7862H21.7474L21.5298 9.22881C21.4589 8.72323 20.9841 8.3102 20.4738 8.3102H15.526C15.0169 8.3102 14.5409 8.72336 14.4696 9.22965L14.2524 10.7842H12.4342C11.4082 10.785 10.5778 11.6158 10.5786 12.639V13.2581H25.4218L25.4238 12.6417ZM20.3249 9.54918L20.4981 10.7861H15.5017L15.6748 9.54918H20.3249ZM15.5258 25.6299H13.6702L13.0517 16.971H15.5259L15.5258 25.6299ZM19.2369 25.6299H16.7616V16.971H19.2356L19.2369 25.6299ZM22.3295 25.6299H20.474V16.971H22.9482L22.3295 25.6299Z" fill="white"/>
</svg>
